<?xml version="1.0" encoding="utf-8"?>
<!-- Generator: Adobe Illustrator 16.0.3, SVG Export Plug-In . SVG Version: 6.00 Build 0)  -->
<!DOCTYPE svg PUBLIC "-//W3C//DTD SVG 1.1//EN" "http://www.w3.org/Graphics/SVG/1.1/DTD/svg11.dtd">
<svg version="1.1" id="Layer_1" xmlns="http://www.w3.org/2000/svg" xmlns:xlink="http://www.w3.org/1999/xlink" x="0px" y="0px"
	 width="512px" height="512px" viewBox="0 0 512 512" enable-background="new 0 0 512 512" xml:space="preserve">
<g>
	<path fill="#6D6E71" d="M421.393,89.384c-0.003-0.243-0.017-0.481-0.037-0.719c-1.198-12.395-11.89-22.103-24.343-22.103h-3.265
		v-40.25C393.748,10.819,384.019,0,370.085,0c-4.031,0-8.19,0.925-12.375,2.76l-57.346,25.191H141.206
		c-12.656,0-22.951,10.295-22.951,22.948v15.663h-3.265c-12.651,0-23.116,9.502-24.345,22.097c-0.021,0.238-0.035,0.481-0.037,0.725
		l-0.08,40.948c0,4.484,3.636,8.122,8.122,8.122h21.254l21.582,351.993c0,11.887,9.668,21.553,21.553,21.553h185.922
		c11.887,0,21.558-9.666,21.542-21.056l21.593-352.49h21.254c4.486,0,8.122-3.638,8.122-8.122L421.393,89.384z M134.499,50.899
		c0-3.696,3.009-6.705,6.708-6.705h160.863c1.123,0,2.236-0.233,3.268-0.688l58.897-25.873c2.107-0.92,4.074-1.391,5.851-1.391
		c6.697,0,7.419,7.043,7.419,10.067v40.25H134.499V50.899z M354.274,490.447c0,2.93-2.385,5.309-5.313,5.309H163.039
		c-2.927,0-5.309-2.379-5.325-5.806l-21.537-351.496h239.645L354.274,490.447z M384.458,122.21H127.542h-20.77l0.077-32.271
		c0.542-4.024,4.061-7.133,8.141-7.133h11.387h259.25h11.387c4.082,0,7.602,3.109,8.139,7.128l0.076,32.276H384.458z"/>
	<path fill="#6D6E71" d="M255.997,367.063c-42.394,0-76.883-34.492-76.883-76.884s34.489-76.883,76.883-76.883
		c42.397,0,76.889,34.492,76.889,76.883S298.395,367.063,255.997,367.063z M255.997,229.54c-33.437,0-60.64,27.205-60.64,60.64
		s27.203,60.64,60.64,60.64c33.439,0,60.645-27.205,60.645-60.64S289.437,229.54,255.997,229.54z"/>
</g>
</svg>
