<?xml version="1.0" encoding="utf-8"?>
<!-- Generator: Adobe Illustrator 16.0.3, SVG Export Plug-In . SVG Version: 6.00 Build 0)  -->
<!DOCTYPE svg PUBLIC "-//W3C//DTD SVG 1.1//EN" "http://www.w3.org/Graphics/SVG/1.1/DTD/svg11.dtd">
<svg version="1.1" id="Layer_1" xmlns="http://www.w3.org/2000/svg" xmlns:xlink="http://www.w3.org/1999/xlink" x="0px" y="0px"
	 width="512px" height="512px" viewBox="0 0 512 512" enable-background="new 0 0 512 512" xml:space="preserve">
<g>
	<line fill="#6D6E71" x1="175.434" y1="466.36" x2="336.576" y2="466.36"/>
	<path fill="#6D6E71" d="M276.803,267.796c-15.312,0-27.775-12.458-27.775-27.774c0-15.312,12.464-27.765,27.775-27.765
		s27.77,12.453,27.77,27.765C304.572,255.338,292.114,267.796,276.803,267.796z M276.803,228.398
		c-6.416,0-11.634,5.213-11.634,11.623c0,6.415,5.218,11.633,11.634,11.633c6.41,0,11.628-5.218,11.628-11.633
		C288.431,233.611,283.213,228.398,276.803,228.398z"/>
	<path fill="#6D6E71" d="M230.574,331.301c-14.024,0-25.431-11.407-25.431-25.432c0-14.019,11.407-25.42,25.431-25.42
		c14.019,0,25.426,11.401,25.426,25.42C256,319.894,244.593,331.301,230.574,331.301z M230.574,296.59
		c-5.123,0-9.29,4.162-9.29,9.279c0,5.123,4.167,9.29,9.29,9.29c5.118,0,9.285-4.167,9.285-9.29
		C239.858,300.752,235.692,296.59,230.574,296.59z"/>
	<path fill="#6D6E71" d="M215.368,188.076c-18.559,0-33.654-15.101-33.654-33.66c0-18.553,15.096-33.649,33.654-33.649
		s33.66,15.096,33.66,33.649C249.027,172.975,233.926,188.076,215.368,188.076z M215.368,136.909
		c-9.658,0-17.513,7.855-17.513,17.508c0,9.658,7.855,17.518,17.513,17.518s17.518-7.86,17.518-17.518
		C232.886,144.764,225.025,136.909,215.368,136.909z"/>
	<path fill="#6D6E71" d="M385.18,60.137c-5.644-5.948-13.325-9.222-21.643-9.222h-0.673l0.252-3.757
		c0.101-0.835,2.349-20.629-9.925-34.484C345.74,4.267,334.942,0,321.092,0c-18.064,0-29.493,8.549-36.045,17.712
		C276.991,8.822,262.684,0,237.594,0c-29.813,0-41.563,14.339-45.923,22.93c-15.043,0.83-26.424,5.149-33.88,12.863
		c-4.824,5.002-7.062,10.509-8.113,15.122h-1.214c-8.318,0-16,3.273-21.643,9.222c-5.643,5.942-8.512,13.793-8.071,22.1
		c0.357,6.888,9.106,169.57,29.162,246.426c19.483,74.707,14.702,151.164,14.649,151.926c-0.552,8.318,2.217,16.184,7.803,22.153
		c5.585,5.969,13.251,9.258,21.59,9.258h128.092c8.339,0,16.005-3.289,21.596-9.258c5.58-5.97,8.35-13.835,7.793-22.153
		c-0.048-0.762-4.829-77.219,14.659-151.926c20.057-76.856,28.8-239.538,29.156-246.426C393.691,73.93,390.823,66.079,385.18,60.137
		z M169.402,47.006c5.107-5.286,14.723-8.081,27.795-8.081c3.815,0,7.109-2.675,7.897-6.405c0.037-0.163,3.783-16.378,32.499-16.378
		c29.667,0,38.525,14.822,40.958,21.196c1.277,3.347,4.546,5.386,8.202,5.165c3.573-0.294,6.526-2.916,7.246-6.432
		c0.163-0.814,4.324-19.93,27.092-19.93c8.99,0,15.705,2.412,19.962,7.167c7.461,8.349,6.053,21.806,6,22.336l-3.468,51.614
		c-0.011,0.205-0.016,0.505-0.011,0.794l-2.774,35.767c-0.714,8.107-9.6,9.321-14.833,9.321c-3.315,0-6.279-1.245-8.349-3.505
		c-2.092-2.286-3.079-5.386-2.785-8.733l1.461-16.562c2.106-23.881-18.06-26.566-30.108-28.168c-3.521-0.468-6.841-0.909-9.71-1.655
		c-6.856-1.776-10.414-5.123-12.2-11.586c-0.169-1.14-0.568-4.424-0.841-7.414l0.515-5.843c0.199-2.254-0.557-4.493-2.086-6.158
		c-1.529-1.671-3.688-2.622-5.954-2.622h-89.262C167.3,49.591,168.188,48.262,169.402,47.006z M329.851,491.713
		c-2.501,2.674-5.979,4.146-9.805,4.146H191.954c-3.825,0-7.304-1.472-9.805-4.141c-2.501-2.675-3.73-6.242-3.479-10.057
		c0.032-0.541,0.2-3.174,0.352-7.482h153.949c0.158,4.309,0.321,6.941,0.357,7.482C333.582,485.476,332.352,489.043,329.851,491.713
		z M348.478,324.586c-13.74,52.665-15.889,104.94-15.795,133.956H179.312c0.094-29.016-2.049-81.291-15.784-133.956
		c-19.641-75.265-28.574-241.529-28.658-243.2c-0.205-3.836,1.093-7.44,3.657-10.141c2.564-2.701,6.095-4.188,9.936-4.188h98.909
		c0.216,2.228,0.825,8.26,1.204,9.647c3.205,12.28,11.223,20.167,23.844,23.44c3.815,0.988,7.793,1.519,11.639,2.028
		c15.554,2.07,16.783,3.646,16.157,10.75l-1.461,16.567c-0.693,7.913,1.776,15.39,6.963,21.049
		c5.165,5.638,12.358,8.744,20.25,8.744c17.492,0,29.63-9.442,30.922-24.134l2.827-36.413c0.011-0.221,0.011-0.541,0-0.841
		l2.07-30.838h1.75c3.841,0,7.372,1.487,9.936,4.188c2.564,2.701,3.862,6.305,3.657,10.141
		C377.046,83.057,368.119,249.306,348.478,324.586z"/>
</g>
</svg>
