<?xml version="1.0" encoding="utf-8"?>
<!-- Generator: Adobe Illustrator 16.0.3, SVG Export Plug-In . SVG Version: 6.00 Build 0)  -->
<!DOCTYPE svg PUBLIC "-//W3C//DTD SVG 1.1//EN" "http://www.w3.org/Graphics/SVG/1.1/DTD/svg11.dtd">
<svg version="1.1" id="Layer_1" xmlns="http://www.w3.org/2000/svg" xmlns:xlink="http://www.w3.org/1999/xlink" x="0px" y="0px"
	 width="512px" height="512px" viewBox="0 0 512 512" enable-background="new 0 0 512 512" xml:space="preserve">
<g>
	<path fill="#6D6E71" d="M444.324,202.748c4.633-26.345,7.975-55.341-6.123-72.192c-8.095-9.669-20.452-14.093-37.654-13.135
		c-4.91,0.277-10.088,1.002-15.093,1.698c-6.344,0.89-12.906,1.808-18.854,1.808c-11.711,0-18.33-3.45-22.848-11.901
		c-0.906-1.699-1.81-3.551-2.764-5.505c-7.33-15.028-19.599-40.172-58.507-43.814c-32.751-3.121-51.784,18.676-59.824,30.938
		c-9.652-4.497-19.026-6.773-27.957-6.773c-34.623,0-53.689,33.912-60.005,51.743C69.554,159.37,18.974,214.563,2.517,285.726
		c-0.108,0.481-0.193,0.974-0.252,1.483c-0.272,0.946-0.529,1.897-0.753,2.872c-7.267,31.425,12.391,62.925,43.825,70.221
		l383.848,88.755l8.593,1.999c0.005,0,0.014,0.006,0.02,0.006c0,0,0.025,0.006,0.051,0.012l0.025,0.005
		c0.015,0.006,0.025,0.006,0.04,0.012c4.342,1.002,8.782,1.506,13.206,1.506c0,0,0.003,0,0.006,0
		c27.385,0,50.814-18.646,56.972-45.319l0.896-3.902C521.062,330.553,496.277,254.191,444.324,202.748z M194.702,101.271
		c8.197,0,17.274,2.854,26.979,8.485c2.119,1.224,4.659,1.483,7.001,0.753c2.334-0.742,4.257-2.447,5.279-4.673
		c0.572-1.24,14.974-31.788,46.895-28.809c29.183,2.735,37.316,19.411,44.496,34.121c1.051,2.158,2.054,4.203,3.056,6.078
		c7.585,14.195,20.077,21.1,38.192,21.1c7.157,0,14.327-1.002,21.261-1.971c4.872-0.68,9.472-1.325,13.668-1.558
		c11.253-0.691,18.891,1.619,23.326,6.927c9.219,11.018,6.387,35.425,1.954,60.162l-0.521,2.911
		c-0.804,4.457-1.648,8.91-2.483,13.294c-0.688,3.603-1.346,7.098-1.979,10.541c-0.227,1.212-0.425,2.379-0.644,3.568
		c-0.172,0.98-0.362,1.988-0.526,2.946c-2.798,16.002-4.302,29.856-1.2,40.268c3.075,10.31,8.171,20.188,13.102,29.737
		c6.837,13.255,13.297,25.768,14.39,38.683c0.621,7.284,0.641,20.108-6.171,24.146c-0.835,0.493-1.717,0.827-2.629,1.094
		c-1.807,0.492-3.801,0.56-5.919,0.328c-0.034-0.006-0.067-0.011-0.102-0.011c-5.356-0.618-11.49-3.155-17.435-5.767
		c-0.338-0.148-0.641-0.272-0.975-0.42c7.868-87.315-37.127-176.495-111.254-216.751c-15.067-8.18-31.159-14.286-47.827-18.144
		c-15.636-3.613-31.63-5.449-47.535-5.449c-17.214,0-33.98,2.097-50.07,5.999C163.939,116.333,176.1,101.271,194.702,101.271z
		 M49.262,343.348c-22.089-5.126-35.904-27.262-30.794-49.364c0.209-0.912,0.464-1.784,0.725-2.662
		c0.199-0.668,0.252-1.003,0.286-1.705c20.335-87.933,97.489-149.352,187.623-149.352c14.588,0,29.262,1.683,43.612,5.002
		c15.141,3.506,29.758,9.052,43.449,16.483c69.909,37.962,111.607,123.459,101.517,206.477c-0.107,0.86-0.224,1.739-0.343,2.611
		c-0.292,2.175-0.595,4.344-0.96,6.514l-0.428,4.072c-0.428,1.938-0.754,3.874-0.983,5.807c-0.096,0.82-0.107,1.637-0.166,2.452
		c-0.086,1.104-0.201,2.215-0.225,3.313c-0.017,1.048,0.057,2.085,0.094,3.121c0.031,0.855,0.018,1.717,0.085,2.566
		c0.094,1.155,0.277,2.288,0.439,3.427c0.099,0.72,0.155,1.444,0.282,2.158c0.213,1.189,0.517,2.351,0.802,3.523
		c0.156,0.64,0.27,1.291,0.448,1.92c0.328,1.173,0.738,2.316,1.139,3.461c0.212,0.605,0.384,1.224,0.614,1.823
		c0.433,1.122,0.946,2.21,1.447,3.309c0.269,0.583,0.504,1.189,0.79,1.768c0.526,1.059,1.127,2.072,1.713,3.092
		c0.303,0.527,0.562,1.071,0.878,1.586L49.262,343.348z M491.936,399.969l-0.787,3.365c-4.333,18.766-20.791,31.867-40.027,31.861
		c-3.109,0-6.236-0.356-9.29-1.06c-0.775-0.181-1.515-0.431-2.268-0.646c-0.674-0.198-1.356-0.373-2.015-0.605
		c-0.637-0.221-1.245-0.493-1.865-0.742c-0.652-0.267-1.313-0.51-1.943-0.805c-0.584-0.271-1.136-0.589-1.702-0.884
		c-0.632-0.328-1.274-0.646-1.884-1.002c-0.515-0.312-0.999-0.657-1.5-0.985c-0.624-0.408-1.255-0.799-1.853-1.235
		c-0.428-0.316-0.827-0.669-1.244-0.997c-0.623-0.498-1.257-0.985-1.849-1.518c-0.357-0.317-0.68-0.668-1.022-0.997
		c-0.609-0.589-1.227-1.161-1.796-1.784c-0.289-0.312-0.547-0.657-0.827-0.98c-0.581-0.674-1.166-1.337-1.702-2.045
		c-0.224-0.294-0.419-0.611-0.634-0.917c-0.55-0.765-1.1-1.53-1.595-2.334c-0.167-0.272-0.307-0.561-0.468-0.838
		c-0.501-0.85-0.999-1.711-1.438-2.595c-0.128-0.261-0.227-0.532-0.349-0.799c-0.434-0.923-0.86-1.852-1.224-2.809
		c-0.096-0.25-0.164-0.511-0.255-0.766c-0.351-0.985-0.693-1.971-0.972-2.984c-0.07-0.255-0.109-0.516-0.175-0.776
		c-0.261-1.02-0.507-2.051-0.688-3.093c-0.051-0.3-0.067-0.606-0.113-0.906c-0.153-1.015-0.3-2.027-0.374-3.059
		c-0.031-0.408-0.014-0.821-0.031-1.235c-0.042-0.929-0.091-1.857-0.065-2.798c0.015-0.572,0.091-1.156,0.131-1.733
		c0.054-0.781,0.079-1.569,0.182-2.356c0.172-1.371,0.416-2.742,0.733-4.112c0.079-0.346,0.139-0.702,0.176-1.06l0.255-2.543
		c0.158,0.068,0.325,0.131,0.484,0.193c1.461,0.623,2.951,1.229,4.469,1.807c0.182,0.073,0.356,0.142,0.541,0.215
		c1.603,0.595,3.242,1.133,4.902,1.626c0.34,0.102,0.674,0.198,1.017,0.295c1.663,0.458,3.351,0.844,5.062,1.132
		c0.306,0.051,0.611,0.085,0.92,0.131c1.807,0.26,3.629,0.447,5.48,0.447h0.003c5.573,0,10.726-1.377,15.311-4.09
		c7.856-4.656,16.772-15.475,14.64-40.591c-1.385-16.353-8.949-31.012-16.266-45.189c-4.771-9.244-9.28-17.979-11.89-26.73
		c-2.23-7.482-0.237-21.802,2.538-37.152c0.569-3.081,1.159-6.208,1.765-9.386c0.005-0.028,0.012-0.063,0.018-0.091
		C482.136,270.663,502.157,338.205,491.936,399.969z"/>
	<g>
		<path fill="#6D6E71" d="M325.554,371.166c-0.838,0-1.688-0.119-2.532-0.374c-4.597-1.398-7.193-6.26-5.794-10.858l21.07-69.354
			c1.395-4.594,6.251-7.183,10.854-5.794c4.597,1.398,7.194,6.259,5.795,10.858l-21.071,69.354
			C332.736,368.747,329.284,371.166,325.554,371.166z"/>
	</g>
	<g>
		<path fill="#6D6E71" d="M234.517,317.389c-0.838,0-1.688-0.119-2.532-0.374c-4.596-1.399-7.193-6.259-5.794-10.858l21.072-69.354
			c1.396-4.594,6.248-7.177,10.853-5.795c4.597,1.399,7.193,6.259,5.795,10.858l-21.072,69.354
			C241.699,314.97,238.247,317.389,234.517,317.389z"/>
	</g>
	<g>
		<path fill="#6D6E71" d="M271.145,361.666c-0.838,0-1.688-0.118-2.531-0.373c-4.597-1.399-7.194-6.259-5.795-10.858l36.674-120.696
			c1.396-4.594,6.259-7.182,10.853-5.794c4.597,1.398,7.194,6.259,5.795,10.858l-36.674,120.695
			C278.327,359.248,274.875,361.666,271.145,361.666z"/>
	</g>
</g>
</svg>
