<?xml version="1.0" encoding="utf-8"?>
<!-- Generator: Adobe Illustrator 16.0.3, SVG Export Plug-In . SVG Version: 6.00 Build 0)  -->
<!DOCTYPE svg PUBLIC "-//W3C//DTD SVG 1.1//EN" "http://www.w3.org/Graphics/SVG/1.1/DTD/svg11.dtd">
<svg version="1.1" id="Layer_1" xmlns="http://www.w3.org/2000/svg" xmlns:xlink="http://www.w3.org/1999/xlink" x="0px" y="0px"
	 width="512px" height="512px" viewBox="0 0 512 512" enable-background="new 0 0 512 512" xml:space="preserve">
<g>
	<path fill="#6D6E71" stroke="#FFFFFF" stroke-width="2.8121" stroke-miterlimit="10" d="M77.501,351.143
		c0,4.401,3.99,6.738,9.906,6.738c5.781,0,10.458-2.477,14.587-6.189c-6.055-5.229-11.006-7.98-15.688-7.98
		C80.805,343.711,77.501,347.566,77.501,351.143z"/>
	<path fill="#6D6E71" d="M256,23.356c-128.281,0-232.646,104.364-232.646,232.645c0,128.282,104.365,232.647,232.646,232.647
		c128.28,0,232.646-104.365,232.646-232.647C488.646,127.721,384.28,23.356,256,23.356z M307.079,136.378h77.726v25.719h-10.663
		V145.6h-22.835v71.513h14.741v9.222h-40.209v-9.222h14.805V145.6h-22.897v16.497h-10.667V136.378z M262.43,72.56l2.954-2.955
		l11.515,11.518l11.518-11.518l2.955,2.955l-11.518,11.518l11.518,11.519l-2.955,2.955l-11.518-11.518l-11.515,11.518l-2.954-2.955
		l11.515-11.519L262.43,72.56z M220.627,72.56l2.955-2.955l11.516,11.518l11.516-11.518l2.955,2.955l-11.516,11.518l11.516,11.519
		l-2.955,2.955l-11.516-11.518l-11.516,11.518l-2.955-2.955l11.516-11.519L220.627,72.56z M206.421,217.112h11.229l30.675-80.734
		h12.987l30.675,80.734h10.663v9.222h-33.624v-9.222h11.669l-7.151-18.443h-38.455l-7.025,18.443h12.17v9.222h-33.812V217.112z
		 M299.267,277.668c0,5.231-4.399,9.634-9.773,9.634c-5.363,0-9.626-4.402-9.626-9.634c0-5.366,4.263-9.631,9.626-9.631
		C294.867,268.037,299.267,272.302,299.267,277.668z M120.127,217.112h12.233V145.6h-12.233v-9.222h70.323v25.719h-10.665V145.6
		h-36.761v31.051h33.247v9.222h-33.247v31.24h36.761v-16.497h10.665v25.719h-70.323V217.112z M249.569,439.442l-2.955,2.955
		l-11.516-11.518l-11.516,11.518l-2.955-2.955l11.516-11.517l-11.516-11.518l2.955-2.955l11.516,11.518l11.516-11.518l2.955,2.955
		l-11.516,11.518L249.569,439.442z M291.371,439.442l-2.955,2.955l-11.518-11.518l-11.515,11.518l-2.954-2.955l11.515-11.517
		l-11.515-11.518l2.954-2.955l11.515,11.518l11.518-11.518l2.955,2.955l-11.518,11.518L291.371,439.442z M404.78,368.064
		c-13.071,0-18.704-13.621-17.748-26.281c0.684-7.291,2.749-8.255,5.777-8.393c4.817-0.137,11.971-0.412,16.925-12.38
		c0.547-1.104,3.299-7.843,3.299-10.731c0-2.205-1.511-3.307-3.713-3.307c-3.716,0-10.043,3.169-16.23,9.908l-19.962,49.398h-16.917
		l2.92-7.22c-6.025,5.58-12.44,9.005-19.289,9.005c-12.377,0-18.564-9.217-8.802-33.298l4.271-10.866
		c2.751-6.745,4.809-11.836,4.809-13.901c0-1.925-1.648-3.026-3.713-3.026c-3.576,0-10.184,3.169-16.102,9.908l-19.953,49.398
		h-16.914l2.928-7.272c-5.995,5.603-12.377,9.058-19.16,9.058c-7.641,0-13.503-3.71-13.715-13.363
		c-6.368,8.008-13.172,13.363-21.063,13.363c-10.872,0-18.99-8.393-9.222-32.334l4.954-11.968c1.102-2.752,1.102-4.13,1.102-4.542
		c0-2.752-1.925-4.677-6.879-8.805c-2.963,6.421-6.097,12.781-9.329,19.075c-4.66,9.063-8.62,17.746-14.093,26.336
		c-2.093,3.279-4.259,6.747-7.464,9.079c-3.565,2.592-7.324,3.158-11.63,3.158c-3.784,0-8.681-1.313-10.589-4.021
		c-7.818,6.151-17.057,9.938-27.522,9.938c-11.693,0-18.436-4.817-28.066-12.521c-6.742,5.916-15.409,9.903-26.006,9.903
		c-16.235,0-23.249-10.043-23.249-19.262c0-9.079,6.604-20.089,21.599-20.089c7.983,0,14.582,3.026,23.941,10.317
		c3.164-4.811,5.641-9.902,7.565-14.856l14.863-36.876c3.85-9.628,12.656-18.572,23.941-18.572l3.023,9.631
		c0,0-7.154,2.617-11.693,13.621c0,0-15.412,37.699-15.412,37.837c-2.475,6.468-5.778,13.069-9.906,18.715
		c5.644,4.402,11.557,8.115,18.851,8.115c22.013,0,40.311-32.471,40.311-59.85c0-20.086-9.766-35.635-31.644-35.635
		c-24.765,0-38.661,20.635-38.661,35.217c0,7.02,3.164,12.935,3.164,12.935l-11.556,8.397c0,0-5.503-7.705-5.503-20.777
		c0-26.418,22.151-48.98,53.661-48.98c28.889,0,46.915,18.844,46.915,48.706c0,5.195-0.458,10.557-1.488,15.647
		c-2.002,9.903-5.413,19.278-10.29,28.121c-0.934,1.687-8.961,13.745-3.326,13.745c4.473,0,7.669-5.078,9.696-8.432
		c8.64-14.25,16.554-28.64,23.431-43.856c-2.478-2.614-4.266-5.363-4.266-8.669c0-6.603,6.88-13.344,12.52-15.132l7.981,5.092
		l-4.955,11.83c5.506,5.234,18.438,11.836,18.438,21.053c0,1.652-0.412,3.989-1.647,7.019l-5.509,13.484
		c-6.605,15.958-2.612,17.611-0.685,17.611c4.72,0,11.949-9.925,22.335-27.542l14.099-35.063h16.925l-18.166,44.994
		c-6.058,15.131-3.436,17.611-0.687,17.611c6.319,0,16.447-11.842,25.768-27.528l14.124-35.077h16.925l-2.893,7.157
		c4.957-4.54,12.795-8.944,20.372-8.944c6.736,0,11.553,3.99,11.553,11.004c0,3.99-1.511,9.222-4.402,16.516l-7.846,19.262
		c-6.604,16.098-3.029,17.611-0.824,17.611c6.404,0,16.426-11.655,25.686-27.16l25.358-62.688h16.914l-13.896,34.533
		c0,0,9.356-9.078,19.946-9.078c7.159,0,11.979,3.99,11.979,10.866c0,7.432-5.644,18.85-6.476,20.5
		c-4.948,9.911-12.369,15.689-22.002,16.513c-0.688,11.834,1.787,16.514,6.736,16.373c7.846-0.138,22.425-11.83,31.781-28.48
		c2.343,0.135,5.641,2.477,6.467,4.677C439.454,347.839,420.879,368.064,404.78,368.064z"/>
	<polygon fill="#6D6E71" points="254.347,147.041 238.163,189.447 270.533,189.447 	"/>
	<path fill="#6D6E71" d="M256,0C114.841,0,0,114.841,0,256.001C0,397.16,114.841,512,256,512c141.16,0,256-114.84,256-255.999
		C512,114.841,397.16,0,256,0z M256,499.897c-134.483,0-243.894-109.411-243.894-243.896C12.107,121.519,121.518,12.107,256,12.107
		s243.894,109.411,243.894,243.894C499.895,390.486,390.483,499.897,256,499.897z"/>
</g>
</svg>
